<svg xmlns="http://www.w3.org/2000/svg" width="128" height="128" viewBox="0 0 128 128">
  <circle cx="64" cy="64" r="30" fill="#d8a832" stroke="#5a4410" stroke-width="5"/>
  <g fill="#c9992f" stroke="#5a4410" stroke-width="6">
    <rect x="56" y="2" width="16" height="36" rx="6"/>
    <rect x="56" y="90" width="16" height="36" rx="6"/>
    <rect x="2" y="56" width="36" height="16" rx="6"/>
    <rect x="90" y="56" width="36" height="16" rx="6"/>
    <rect x="83" y="12" width="16" height="32" rx="6" transform="rotate(45 91 28)"/>
    <rect x="29" y="84" width="16" height="32" rx="6" transform="rotate(45 37 100)"/>
    <rect x="12" y="29" width="16" height="32" rx="6" transform="rotate(-45 20 45)"/>
    <rect x="100" y="67" width="16" height="32" rx="6" transform="rotate(-45 108 83)"/>
  </g>
  <circle cx="64" cy="64" r="16" fill="#f2d584" stroke="#5a4410" stroke-width="4"/>
</svg>